<?xml version="1.0" encoding="utf-8"?>
<svg width="533.15594px" height="199.00928px" viewBox="0 0 533.15594 199.00928" version="1.1" xmlns:xlink="http://www.w3.org/1999/xlink" xmlns="http://www.w3.org/2000/svg">
  <defs>
    <path d="M0 0L147.156 0L147.156 180.009L0 180.009L0 0Z" id="path_1" />
    <clipPath id="mask_1">
      <use xlink:href="#path_1" />
    </clipPath>
  </defs>
  <g id="Group-2">
    <g id="NDES" fill="#007800" transform="translate(147.15594 20.009277)">
      <path d="M362.209 139.086Q364.957 133.262 364.957 125.797Q364.957 119.48 362.865 114.846Q360.773 110.211 357.369 106.807Q353.965 103.402 349.617 100.9Q345.27 98.3984 340.758 96.3066Q336.246 94.2148 331.898 92.1641Q327.551 90.1133 324.146 87.6523Q320.742 85.1914 318.691 81.9922Q316.641 78.793 316.641 74.3633Q316.641 71.3281 317.707 68.6211Q318.773 65.9141 320.906 63.9453Q323.039 61.9766 326.32 60.7871Q329.602 59.5977 334.031 59.5977Q338.789 59.5977 342.604 60.7871Q346.418 61.9766 349.207 63.4121Q351.996 64.8477 353.924 65.9961Q355.852 67.1445 356.754 67.1445Q357.328 67.1445 357.779 66.7754Q358.23 66.4063 358.477 65.627Q358.723 64.8477 358.846 63.6992Q358.969 62.5508 358.969 61.0742Q358.969 59.5156 358.887 58.5313Q358.805 57.5469 358.641 56.8496Q358.477 56.1524 358.23 55.7012Q357.984 55.25 357.205 54.4707Q356.426 53.6914 353.965 52.4199Q351.504 51.1484 348.346 50.123Q345.188 49.0977 341.619 48.4824Q338.051 47.8672 334.523 47.8672Q327.633 47.8672 321.686 49.7129Q315.738 51.5586 311.432 55.0859Q307.125 58.6133 304.705 63.8223Q302.285 69.0313 302.285 75.6758Q302.285 82.1563 304.377 86.791Q306.469 91.4258 309.832 94.8711Q313.195 98.3164 317.461 100.859Q321.727 103.402 326.238 105.494Q330.75 107.586 335.057 109.596Q339.363 111.605 342.727 114.025Q346.09 116.445 348.141 119.645Q350.191 122.844 350.191 127.355Q350.191 131.539 348.715 134.82Q347.238 138.102 344.49 140.357Q341.742 142.613 337.928 143.844Q334.113 145.074 329.52 145.074Q323.449 145.074 318.814 143.639Q314.18 142.203 310.898 140.563Q307.617 138.922 305.525 137.527Q303.434 136.133 302.285 136.133Q301.629 136.133 301.137 136.42Q300.645 136.707 300.316 137.445Q299.988 138.184 299.824 139.373Q299.66 140.563 299.66 142.367Q299.66 144.91 300.111 146.428Q300.563 147.945 301.506 148.93Q302.449 149.914 304.869 151.309Q307.289 152.703 310.857 154.016Q314.426 155.328 318.979 156.23Q323.531 157.133 328.863 157.133Q336.492 157.133 343.096 155.082Q349.699 153.031 354.58 148.971Q359.461 144.91 362.209 139.086ZM93.7848 152.539Q94.3359 151.391 94.3359 149.75L94.3359 51.8047Q94.3359 51.2305 93.9899 50.7383Q93.6438 50.2461 92.8645 49.877Q92.0852 49.5078 90.7003 49.3438Q89.3154 49.1797 87.4107 49.1797Q85.2471 49.1797 83.9052 49.3438Q82.5632 49.5078 81.7409 49.877Q80.9187 50.2461 80.5726 50.7383Q80.2266 51.2305 80.2266 51.8047L80.2266 109.391Q80.2266 115.871 80.2676 122.885Q80.3086 129.898 80.4727 136.379L80.3906 136.379Q78.4872 132.523 76.5454 128.709Q74.6036 124.895 72.6214 120.957Q70.6392 117.02 68.4987 112.959Q66.3582 108.898 64.0587 104.633L39.1648 58.0391Q37.8164 55.4961 36.5885 53.8145Q35.3606 52.1328 34.0487 51.1895Q32.7369 50.2461 31.0854 49.8359Q29.4338 49.4258 26.9793 49.4258L20.0361 49.4258Q17.8354 49.4258 15.9724 50.8203Q14.1094 52.2148 14.1094 55.4961L14.1094 153.441Q14.1094 154.016 14.4554 154.549Q14.8015 155.082 15.5808 155.369Q16.3601 155.656 17.7014 155.861Q19.0428 156.066 21.1205 156.066Q23.1982 156.066 24.5402 155.861Q25.8821 155.656 26.7044 155.369Q27.5266 155.082 27.8727 154.549Q28.2188 154.016 28.2188 153.441L28.2188 89.375Q28.2188 83.3047 28.1367 77.1523Q28.0547 71 27.8906 65.0938L28.0547 65.0938Q30.2772 69.9336 32.8567 75.0605Q35.4362 80.1875 37.9753 84.8633L70.3572 145.238Q72.0234 148.438 73.5083 150.488Q74.9932 152.539 76.4775 153.729Q77.9617 154.918 79.6165 155.369Q81.2712 155.82 83.4771 155.82L88.1426 155.82Q89.2461 155.82 90.3491 155.492Q91.452 155.164 92.3428 154.426Q93.2336 153.688 93.7848 152.539ZM200.648 125.018Q204.176 114.723 204.176 100.941Q204.176 88.9649 200.854 79.4492Q197.531 69.9336 191.092 63.248Q184.652 56.5625 175.137 52.9941Q165.621 49.4258 151.84 49.4258L127.805 49.4258Q125.918 49.4258 124.236 50.6973Q122.555 51.9688 122.555 55.168L122.555 149.832Q122.555 153.031 124.236 154.303Q125.918 155.574 127.805 155.574L150.281 155.574Q163.898 155.574 173.742 152.211Q183.586 148.848 190.354 142.08Q197.121 135.313 200.648 125.018ZM284.977 149.75Q284.977 151.227 284.813 152.334Q284.648 153.441 284.238 154.18Q283.828 154.918 283.295 155.246Q282.762 155.574 282.105 155.574L231.164 155.574Q229.277 155.574 227.596 154.303Q225.914 153.031 225.914 149.832L225.914 55.168Q225.914 51.9688 227.596 50.6973Q229.277 49.4258 231.164 49.4258L281.531 49.4258Q282.188 49.4258 282.721 49.7539Q283.254 50.082 283.582 50.8203Q283.91 51.5586 284.115 52.666Q284.32 53.7734 284.32 55.4141Q284.32 56.8906 284.115 57.998Q283.91 59.1055 283.582 59.8027Q283.254 60.5 282.721 60.8281Q282.188 61.1563 281.531 61.1563L240.023 61.1563L240.023 94.4609L275.625 94.4609Q276.281 94.4609 276.814 94.8301Q277.348 95.1992 277.717 95.8555Q278.086 96.5117 278.25 97.6602Q278.414 98.8086 278.414 100.367Q278.414 101.844 278.25 102.91Q278.086 103.977 277.717 104.633Q277.348 105.289 276.814 105.576Q276.281 105.863 275.625 105.863L240.023 105.863L240.023 143.844L282.105 143.844Q282.762 143.844 283.295 144.172Q283.828 144.5 284.238 145.197Q284.648 145.895 284.813 147.002Q284.977 148.109 284.977 149.75ZM187.195 85.4785Q189.328 92.9023 189.328 101.516Q189.328 112.344 186.99 120.26Q184.652 128.176 179.977 133.426Q175.301 138.676 168.328 141.219Q161.355 143.762 151.184 143.762L136.664 143.762L136.664 61.1563L151.02 61.1563Q162.012 61.1563 168.984 64.1914Q175.957 67.2266 180.51 72.6406Q185.063 78.0547 187.195 85.4785Z" />
    </g>
    <path d="M0 0L147.156 0L147.156 180.009L0 180.009L0 0Z" id="Background" fill="#FFFFFF" fill-opacity="0" fill-rule="evenodd" stroke="none" />
    <g clip-path="url(#mask_1)">
      <path d="M16.5707 175.227C15.0038 174.17 14.04 172.714 13.6794 170.858C13.3188 169.003 13.6669 167.292 14.7238 165.725L95.1255 46.5247C96.1824 44.9578 97.6385 43.994 99.4938 43.6334C101.349 43.2728 103.06 43.6209 104.627 44.6778C106.194 45.7347 107.158 47.1908 107.518 49.0461C107.879 50.9015 107.531 52.6126 106.474 54.1795L26.0724 173.38C25.0155 174.947 23.5594 175.911 21.7041 176.271C19.8488 176.632 18.1377 176.284 16.5707 175.227L16.5707 175.227ZM14.4389 173.559C13.5808 171.875 13.4438 170.134 14.0279 168.336C14.6119 166.539 15.746 165.211 17.43 164.353L71.0964 137.009C72.7805 136.15 74.5213 136.013 76.3188 136.598C78.1163 137.182 79.4442 138.316 80.3022 140C81.1603 141.684 81.2973 143.425 80.7132 145.222C80.1292 147.02 78.9951 148.347 77.3111 149.205L23.6446 176.55C21.9606 177.408 20.2198 177.545 18.4223 176.961C16.6247 176.377 15.2969 175.243 14.4389 173.559L14.4389 173.559ZM99.8059 41.1421C101.696 41.1421 103.309 41.8103 104.646 43.1467C105.982 44.4832 106.65 46.0965 106.65 47.9865L106.65 128.067C106.65 129.957 105.982 131.57 104.646 132.906C103.309 134.243 101.696 134.911 99.8059 134.911C97.9158 134.911 96.3026 134.243 94.9661 132.906C93.6297 131.57 92.9614 129.957 92.9614 128.067L92.9614 47.9865C92.9614 46.0965 93.6297 44.4832 94.9661 43.1467C96.3026 41.8103 97.9158 41.1421 99.8059 41.1421L99.8059 41.1421ZM49.2322 89.6692C49.2322 91.5593 48.564 93.1725 47.2275 94.509C45.891 95.8455 44.2778 96.5137 42.3877 96.5137L7.481 96.5137C5.59095 96.5137 3.9777 95.8455 2.64123 94.509C1.30477 93.1725 0.636541 91.5593 0.636536 89.6692C0.636541 87.7792 1.30477 86.1659 2.64123 84.8295C3.9777 83.493 5.59095 82.8248 7.481 82.8248L42.3877 82.8248C44.2778 82.8248 45.891 83.493 47.2275 84.8295C48.564 86.1659 49.2322 87.7792 49.2322 89.6692L49.2322 89.6692ZM146.773 89.6692C146.773 91.5593 146.104 93.1725 144.768 94.509C143.431 95.8455 141.818 96.5137 139.928 96.5137L105.021 96.5137C103.131 96.5137 101.518 95.8455 100.182 94.509C98.8451 93.1725 98.1769 91.5593 98.1769 89.6692C98.1769 87.7792 98.8451 86.1659 100.182 84.8295C101.518 83.493 103.131 82.8248 105.021 82.8248L139.928 82.8248C141.818 82.8248 143.431 83.493 144.768 84.8295C146.104 86.1659 146.773 87.7792 146.773 89.6692L146.773 89.6692ZM127.28 107.965C125.39 107.965 123.776 107.296 122.44 105.96C121.103 104.623 120.435 103.01 120.435 101.12L120.435 96.678C120.435 94.788 121.103 93.1747 122.44 91.8383C123.776 90.5018 125.39 89.8336 127.28 89.8336C129.17 89.8336 130.783 90.5018 132.119 91.8383C133.456 93.1747 134.124 94.788 134.124 96.678L134.124 101.12C134.124 103.01 133.456 104.623 132.119 105.96C130.783 107.296 129.17 107.965 127.28 107.965L127.28 107.965ZM20.6497 107.965C18.7597 107.965 17.1464 107.296 15.81 105.96C14.4735 104.623 13.8053 103.01 13.8053 101.12L13.8053 96.678C13.8053 94.788 14.4735 93.1747 15.81 91.8383C17.1464 90.5018 18.7597 89.8336 20.6497 89.8336C22.5398 89.8336 24.153 90.5018 25.4895 91.8383C26.826 93.1747 27.4942 94.788 27.4942 96.678L27.4942 101.12C27.4942 103.01 26.826 104.623 25.4895 105.96C24.153 107.296 22.5398 107.965 20.6497 107.965L20.6497 107.965ZM77.5513 4.54907C79.0996 5.63316 80.0378 7.10587 80.366 8.9672C80.6942 10.8285 80.3163 12.5333 79.2322 14.0815L51.7593 53.3169C50.6752 54.8651 49.2025 55.8034 47.3411 56.1316C45.4798 56.4598 43.775 56.0818 42.2268 54.9977C40.6786 53.9137 39.7403 52.4409 39.4121 50.5796C39.0839 48.7183 39.4619 47.0135 40.546 45.4653L68.0189 6.22991C69.1029 4.68167 70.5757 3.74345 72.437 3.41525C74.2983 3.08705 76.0031 3.46499 77.5513 4.54907L77.5513 4.54907ZM69.762 4.54907C71.3103 3.46499 73.0151 3.08705 74.8764 3.41525C76.7377 3.74345 78.2104 4.68167 79.2945 6.22991L106.767 45.4653C107.852 47.0135 108.229 48.7183 107.901 50.5796C107.573 52.4409 106.635 53.9137 105.087 54.9977C103.538 56.0818 101.834 56.4598 99.9722 56.1316C98.1109 55.8034 96.6382 54.8651 95.5541 53.3169L68.0812 14.0815C66.9971 12.5333 66.6192 10.8285 66.9474 8.9672C67.2756 7.10587 68.2138 5.63316 69.762 4.54907L69.762 4.54907ZM43.4011 44.6721C44.968 43.6152 46.6791 43.2671 48.5344 43.6277C50.3897 43.9883 51.8459 44.9521 52.9028 46.519L133.304 165.719C134.361 167.286 134.709 168.997 134.349 170.853C133.988 172.708 133.024 174.164 131.457 175.221C129.891 176.278 128.179 176.626 126.324 176.265C124.469 175.905 123.013 174.941 121.956 173.374L41.5541 54.1738C40.4972 52.6069 40.1491 50.8957 40.5097 49.0404C40.8704 47.1851 41.8341 45.729 43.4011 44.6721L43.4011 44.6721ZM127.28 107.965C125.39 107.965 123.776 107.296 122.44 105.96C121.103 104.623 120.435 103.01 120.435 101.12L120.435 96.678C120.435 94.788 121.103 93.1747 122.44 91.8383C123.776 90.5018 125.39 89.8336 127.28 89.8336C129.17 89.8336 130.783 90.5018 132.119 91.8383C133.456 93.1747 134.124 94.788 134.124 96.678L134.124 101.12C134.124 103.01 133.456 104.623 132.119 105.96C130.783 107.296 129.17 107.965 127.28 107.965L127.28 107.965ZM49.2322 51.6757C49.2322 53.5658 48.564 55.179 47.2275 56.5155C45.891 57.8519 44.2778 58.5202 42.3877 58.5202L7.481 58.5202C5.59095 58.5202 3.9777 57.8519 2.64123 56.5155C1.30477 55.179 0.636541 53.5658 0.636536 51.6757C0.636541 49.7857 1.30477 48.1724 2.64123 46.8359C3.9777 45.4995 5.59095 44.8312 7.481 44.8312L42.3877 44.8312C44.2778 44.8312 45.891 45.4995 47.2275 46.8359C48.564 48.1724 49.2322 49.7857 49.2322 51.6757L49.2322 51.6757ZM146.773 51.6757C146.773 53.5658 146.104 55.179 144.768 56.5155C143.431 57.8519 141.818 58.5202 139.928 58.5202L105.021 58.5202C103.131 58.5202 101.518 57.8519 100.182 56.5155C98.8452 55.179 98.177 53.5658 98.177 51.6757C98.177 49.7857 98.8452 48.1724 100.182 46.8359C101.518 45.4995 103.131 44.8312 105.021 44.8312L139.928 44.8312C141.818 44.8312 143.431 45.4995 144.768 46.8359C146.104 48.1724 146.773 49.7857 146.773 51.6757L146.773 51.6757ZM20.6497 69.9709C18.7597 69.9709 17.1464 69.3027 15.81 67.9662C14.4735 66.6298 13.8053 65.0165 13.8053 63.1265L13.8053 58.6844C13.8053 56.7944 14.4735 55.1811 15.81 53.8447C17.1464 52.5082 18.7597 51.84 20.6497 51.84C22.5398 51.84 24.153 52.5082 25.4895 53.8447C26.826 55.1811 27.4942 56.7944 27.4942 58.6844L27.4942 63.1265C27.4942 65.0165 26.826 66.6298 25.4895 67.9662C24.153 69.3027 22.5398 69.9709 20.6497 69.9709L20.6497 69.9709ZM127.28 69.9709C125.39 69.9709 123.776 69.3027 122.44 67.9662C121.103 66.6298 120.435 65.0165 120.435 63.1265L120.435 58.6844C120.435 56.7944 121.103 55.1811 122.44 53.8447C123.776 52.5082 125.39 51.84 127.28 51.84C129.17 51.84 130.783 52.5082 132.119 53.8447C133.456 55.1811 134.124 56.7944 134.124 58.6844L134.124 63.1265C134.124 65.0165 133.456 66.6298 132.119 67.9662C130.783 69.3027 129.17 69.9709 127.28 69.9709L127.28 69.9709ZM48.2055 41.1421C50.0956 41.1421 51.7088 41.8103 53.0453 43.1467C54.3817 44.4832 55.05 46.0965 55.05 47.9865L55.05 128.067C55.05 129.957 54.3817 131.57 53.0453 132.906C51.7088 134.243 50.0956 134.911 48.2055 134.911C46.3155 134.911 44.7022 134.243 43.3657 132.906C42.0293 131.57 41.3611 129.957 41.3611 128.067L41.3611 47.9865C41.3611 46.0965 42.0293 44.4832 43.3658 43.1467C44.7022 41.8103 46.3155 41.1421 48.2055 41.1421L48.2055 41.1421ZM68.1405 140C68.9985 138.316 70.3263 137.182 72.1239 136.598C73.9214 136.013 75.6622 136.15 77.3463 137.009L131.013 164.353C132.697 165.211 133.831 166.539 134.415 168.336C134.999 170.134 134.862 171.875 134.004 173.559C133.146 175.243 131.818 176.377 130.02 176.961C128.223 177.545 126.482 177.408 124.798 176.55L71.1316 149.205C69.4476 148.347 68.3135 147.02 67.7295 145.222C67.1454 143.425 67.2824 141.684 68.1405 140L68.1405 140Z" id="Group" fill="#007800" stroke="none" />
    </g>
  </g>
</svg>